<svg width="99" height="27" viewBox="0 0 99 27" fill="none" xmlns="http://www.w3.org/2000/svg">
<path fill-rule="evenodd" clip-rule="evenodd" d="M66.8571 27H73.8925L76.9153 18.507L80.0582 15.9038L82.5338 23.5844C83.2995 25.9584 84.0876 27 85.8066 27H91.1931L85.6363 11.9283L99 0H90.3696L82.2574 8.49317C81.3124 9.48189 80.3565 10.455 79.398 11.6174H79.3163L83.367 0H76.3309L66.8571 27Z" fill="white"/>
<path fill-rule="evenodd" clip-rule="evenodd" d="M66.5537 0.00106982C68.76 0.00142492 70.9001 0.00176932 72.6924 0.00192496L71.2402 4.45974C70.7837 5.86034 69.6253 6.5304 67.0719 6.5304C62.6386 6.5304 56.0787 6.52963 51.6449 6.52886L53.0971 2.07106C53.5534 0.66969 54.7117 0 57.2651 0C59.9063 0 63.3022 0.000546534 66.5537 0.00106982ZM53.6845 10.2349C58.1176 10.2349 64.6779 10.2357 69.1117 10.2369L67.6595 14.6945C67.203 16.0955 66.0446 16.7651 63.4911 16.7651C59.0578 16.7651 52.4979 16.7644 48.0641 16.7632L49.5163 12.306C49.9725 10.9048 51.131 10.2349 53.6845 10.2349ZM65.3548 20.4711C60.9214 20.4704 54.3614 20.4696 49.9281 20.4696C47.3742 20.4696 46.2162 21.1397 45.76 22.5399L44.3077 26.9983C48.7415 26.9986 55.3014 27 59.735 27C62.2882 27 63.4467 26.3298 63.9029 24.9288L65.3548 20.4711Z" fill="white"/>
<path fill-rule="evenodd" clip-rule="evenodd" d="M34.9564 6.50314L38.7321 6.50469C41.9491 6.50546 41.2148 10.394 39.5867 14.1839C38.1521 17.5243 35.6096 20.472 32.5763 20.4717L26.2819 20.4709C23.7713 20.4709 22.6138 21.1409 22.1255 22.5411L20.5714 26.9992L25.187 27L29.6988 26.9636C33.7 26.9317 36.9757 26.6518 40.8063 23.3198C44.8545 19.8001 49.5745 10.6562 48.7658 5.36747C48.1324 1.22305 45.8315 0.00192486 40.2598 0.00153989L30.1065 0L24.1947 16.7459L27.951 16.7505C30.1865 16.753 31.3084 16.7802 32.4976 13.6831L34.9564 6.50314Z" fill="white"/>
<path fill-rule="evenodd" clip-rule="evenodd" d="M17.5989 6.52641L14.759 6.52719C9.07014 6.52989 4.19531 20.474 10.9218 20.4717L15.2437 20.4709C17.7363 20.4709 19.5867 21.3519 18.7674 23.7273L17.6383 26.9992L13.0546 27L9.32612 26.9636C4.55631 26.9175 1.47834 24.6417 0.37007 21.1861C-0.829241 17.4468 0.863974 9.64742 5.77833 4.65123C8.62978 1.75278 12.5796 0.00192486 17.6439 0.00153989L27 0L25.5374 4.08648C24.5925 6.72679 22.6619 6.52989 21.5601 6.5295L17.5989 6.52641Z" fill="white"/>
</svg>
