<svg width="106" height="30" viewBox="0 0 106 30" fill="none" xmlns="http://www.w3.org/2000/svg">
<path fill-rule="evenodd" clip-rule="evenodd" d="M37.9214 3.81682H11.1077L10.152 2.71433H7.08287L7.70814 0.325195H38.8217L37.9214 3.81682ZM55.5089 7.87835V7.91506H48.9848C48.6171 9.14633 48.3048 10.3963 47.9924 11.6275L54.5352 11.6462L52.7894 18.3725V18.4092H46.2647C45.9156 19.6585 45.6033 20.9078 45.2723 22.1584L51.8331 22.1758L50.0873 28.9755V29.0128H35.4955L36.3404 25.7415L49.3158 25.7228L49.6462 24.565L36.6347 24.5463C36.9657 23.2783 37.2967 21.9923 37.6271 20.7062H43.8942L44.2065 19.5472L37.94 19.5297L38.9137 15.7805H51.8885C52.0173 15.3948 52.0907 14.9717 52.2014 14.5679L39.2261 14.5499C39.5197 13.2999 39.8874 12.0687 40.1817 10.8193H46.4482L46.7425 9.69818L40.4754 9.68013L41.431 5.94899H54.4064C54.5346 5.54518 54.6086 5.14077 54.7193 4.73637L41.744 4.71771L42.6996 1.00583H57.2914L55.5089 7.87835ZM71.1111 12.2341L71.1297 12.2528L71.9018 10.8193H82.6529L82.9466 9.68013L72.5632 9.64281L74.6027 5.96764L83.9209 5.93033C84.0305 5.52653 84.1231 5.12212 84.2146 4.71771L75.3194 4.69906L77.3776 1.00523H86.3281L79.1421 28.9942H72.2509C72.5446 27.9104 72.8021 26.8067 73.0958 25.7042H78.8291L79.124 24.565L73.4081 24.5463L74.3084 20.7237L80.0971 20.7062C80.2265 20.3385 80.318 19.9341 80.41 19.5472L74.6942 19.5297L75.6324 15.7805H81.3849C81.4957 15.3761 81.5872 14.9717 81.7153 14.5679L75.8526 14.5493C75.982 13.8879 76.1475 13.2259 76.2757 12.5826L67.9504 28.9749L65.3597 28.9936V25.7222H68.1713C68.3735 25.3365 68.557 24.9501 68.7593 24.5644L65.3603 24.5457V20.7056H70.7073C70.9095 20.3379 71.0942 19.9335 71.2964 19.5466L65.3609 19.5291V15.7799H73.2077C73.4099 15.3755 73.6308 14.9711 73.8143 14.5673L65.3609 14.5487C65.3609 13.85 65.3784 13.1519 65.3609 12.4719L61.0605 28.9936H54.1302L54.9751 25.7222H60.2312C60.3419 25.3545 60.4334 24.9688 60.5441 24.583L55.27 24.5644L56.2617 20.7056H61.5178C61.6093 20.3187 61.7014 19.9335 61.8115 19.5466L56.5741 19.5291C56.8858 18.2798 57.236 17.0293 57.5472 15.7619H62.7846C62.914 15.3749 62.9868 14.9525 63.0975 14.5667L57.8601 14.5481L58.8158 10.8175H69.5855L69.603 9.67832L59.1088 9.65966L60.0645 5.96584H69.3279V4.73456L60.3961 4.71591L61.3517 1.00403H70.4491L71.1111 12.2341ZM105.882 4.69906L104.596 9.64281L97.465 9.66147C97.6118 9.09157 97.7587 8.52227 97.9247 7.95237L95.609 7.93431C95.26 9.14754 94.9663 10.3969 94.6534 11.6281L99.744 11.6648L103.254 14.8809L100.497 25.7048L94.7641 28.9948H87.9271L83.5346 25.7048L83.5171 25.6873H98.9911L99.3041 24.5662L83.7927 24.5475L84.8038 20.7249L92.3016 20.7074L91.9525 22.1403L94.2315 22.159L94.6173 20.7074H100.26C100.37 20.3205 100.499 19.9528 100.591 19.5484L94.9302 19.5309C94.9856 19.1632 95.1324 18.8142 95.1878 18.4284L89.3991 18.4098C88.5716 17.527 87.69 16.6646 86.8451 15.7817L101.528 15.7643C101.638 15.3599 101.749 14.9549 101.877 14.5691L86.3853 14.5505C86.6922 13.3102 87.0108 12.0729 87.3409 10.8386L93.4787 10.8199C93.5894 10.4522 93.6622 10.0478 93.8103 9.68073L87.6346 9.66207C87.9283 8.41214 88.2966 7.19952 88.5903 5.96825L104.064 5.94959L104.377 4.71831L88.8846 4.69966L95.1517 1.00583H101.951L105.882 4.69906ZM36.598 8.90802H15.4996L14.1034 7.29039H5.90696L6.4215 5.30566H37.535L36.598 8.90802ZM35.33 13.8512H19.7633L17.9808 11.775H4.76716L5.15351 10.2494H36.267L35.33 13.8512ZM34.0981 18.5747H23.8435L21.73 16.1127H3.64661L3.90358 15.0831H35.0357L34.0981 18.5747ZM32.7934 23.4998H28.0886L25.5713 20.5775H2.50681L2.70901 19.6964L22.2999 19.6772H33.7858L32.7934 23.4998ZM31.691 27.7262L29.5034 25.1535L1.31224 25.1361L1.42237 24.6023L32.5178 24.6209L31.691 27.7262ZM31.1764 29.6562L0.117676 29.6754L0.227805 29.1783H31.3419L31.1764 29.6562Z" fill="white"/>
</svg>
