<svg width="89" height="89" viewBox="0 0 89 89" fill="none" xmlns="http://www.w3.org/2000/svg">
<path d="M88.77 51.0063L84.2651 44.1135C82.2757 41.0676 78.896 39.2488 75.222 39.2488H63.5713V32.5443C63.5713 28.4508 60.2425 25.1221 56.149 25.1221H34.3388C33.115 18.7304 27.4888 13.8811 20.7456 13.8811C13.1099 13.8811 6.89848 20.0933 6.89848 27.7282C6.89848 32.529 9.35668 36.7639 13.0783 39.2488H1.413C0.632136 39.2488 3.8147e-06 39.881 3.8147e-06 40.6618C3.8147e-06 41.4427 0.632136 42.0748 1.413 42.0748H15.5398V44.9H9.88858C9.10852 44.9 8.47639 45.5321 8.47639 46.313C8.47639 47.0939 9.10852 47.7252 9.88858 47.7252H15.5398V50.5504H1.413C0.632136 50.5504 3.8147e-06 51.1825 3.8147e-06 51.9634C3.8147e-06 52.7443 0.632136 53.3764 1.413 53.3764H15.5398V59.633C13.0492 60.7316 11.3016 63.2165 11.3016 66.1088V67.5032C11.3016 68.284 11.9345 68.9162 12.7146 68.9162H25.244C26.0475 72.3727 29.1468 74.9594 32.845 74.9594C36.544 74.9594 39.6424 72.3727 40.4459 68.9162H67.6252C68.4295 72.3727 71.5287 74.9594 75.2261 74.9594C78.9235 74.9594 82.0235 72.3727 82.827 68.9162H87.5874C88.3683 68.9162 88.9996 68.284 88.9996 67.5032V51.7791C88.9996 51.5043 88.9196 51.2351 88.77 51.0063ZM9.72368 27.7282C9.72368 21.651 14.6684 16.7063 20.7456 16.7063C26.8236 16.7063 31.7674 21.651 31.7674 27.7282C31.7674 33.8054 26.8236 38.7501 20.7456 38.7501C14.6684 38.7501 9.72368 33.8054 9.72368 27.7282ZM18.365 53.3764H21.1902C21.971 53.3764 22.6032 52.7443 22.6032 51.9634C22.6032 51.1825 21.971 50.5504 21.1902 50.5504H18.365V47.7252H28.2543C29.0344 47.7252 29.6665 47.0939 29.6665 46.313C29.6665 45.5321 29.0344 44.9 28.2543 44.9H18.365V42.0748H36.7299C37.51 42.0748 38.1429 41.4427 38.1429 40.6618C38.1429 39.881 37.51 39.2488 36.7299 39.2488H28.4128C32.077 36.8019 34.5078 32.6567 34.5821 27.9472H56.1498C58.684 27.9472 60.7461 30.0102 60.7461 32.5443V59.0268H18.3827C18.3771 59.0268 18.3714 59.0284 18.365 59.0284V53.3764ZM60.7461 66.0902H40.5744C40.3521 64.4654 39.6311 63.0006 38.5665 61.852H60.7461V66.0902ZM18.3827 61.852H27.1235C26.0597 63.0006 25.3378 64.4654 25.1163 66.0902H14.1268C14.1365 63.7524 16.0426 61.852 18.3827 61.852ZM32.845 72.1342C30.0974 72.1342 27.8607 69.8983 27.8607 67.1499C27.8607 64.4023 30.0974 62.1656 32.845 62.1656C35.5934 62.1656 37.8293 64.4023 37.8293 67.1499C37.8293 69.8983 35.5934 72.1342 32.845 72.1342ZM75.2261 72.1342C72.4785 72.1342 70.2418 69.8983 70.2418 67.1499C70.2418 64.4023 72.4785 62.1656 75.2261 62.1656C77.9745 62.1656 80.2104 64.4023 80.2104 67.1499C80.2104 69.8983 77.9745 72.1342 75.2261 72.1342ZM86.1744 66.0902H82.9556C82.4358 62.2853 79.1717 59.3404 75.2261 59.3404C71.2805 59.3404 68.0172 62.2853 67.4966 66.0902H63.5713V42.0748H75.222C77.9373 42.0748 80.4343 43.4143 81.9007 45.6582L86.1744 52.1994V66.0902Z" fill="white"/>
<path d="M77.5372 67.1499C77.5372 68.4263 76.5025 69.461 75.2261 69.461C73.9497 69.461 72.915 68.4263 72.915 67.1499C72.915 65.8736 73.9497 64.8389 75.2261 64.8389C76.5025 64.8389 77.5372 65.8736 77.5372 67.1499Z" fill="white"/>
<path d="M35.1561 67.1499C35.1561 68.4263 34.1214 69.461 32.845 69.461C31.5694 69.461 30.5347 68.4263 30.5347 67.1499C30.5347 65.8736 31.5694 64.8389 32.845 64.8389C34.1214 64.8389 35.1561 65.8736 35.1561 67.1499Z" fill="white"/>
<path d="M22.6032 27.7284V21.5477C22.6032 20.7668 21.971 20.1355 21.1902 20.1355C20.4101 20.1355 19.778 20.7668 19.778 21.5477V27.2676L16.8946 31.2229C16.4346 31.8534 16.5728 32.7361 17.2034 33.1952C17.4556 33.3795 17.7466 33.4677 18.0352 33.4677C18.4709 33.4677 18.9009 33.2664 19.1774 32.8864L22.3324 28.5601C22.5078 28.3193 22.6032 28.0283 22.6032 27.7284Z" fill="white"/>
<path d="M74.75 43.4871H72.0476C71.2668 43.4871 70.6346 44.1192 70.6346 44.9001V54.7887C70.6346 55.5695 71.2668 56.2017 72.0476 56.2017H81.5555C82.4414 56.2017 83.2344 55.7433 83.679 54.9778C84.1236 54.2123 84.1244 53.2956 83.6863 52.5317L80.3874 46.7577C79.2355 44.7416 77.0748 43.4871 74.75 43.4871ZM73.4606 53.3765V46.3131H74.75C76.0635 46.3131 77.2833 47.0204 77.9341 48.1602L80.9145 53.3765H73.4606Z" fill="white"/>
</svg>
