<svg width="65" height="65" viewBox="0 0 65 65" fill="none" xmlns="http://www.w3.org/2000/svg">
<g clip-path="url(#clip0)">
<path d="M59.5833 24.375H5.41671C4.66921 24.375 4.0625 24.9817 4.0625 25.7292V63.6459C4.0625 64.3933 4.66921 65 5.41671 65H59.5834C60.3309 65 60.9376 64.3933 60.9376 63.6458V25.7292C60.9375 24.9817 60.3308 24.375 59.5833 24.375ZM58.2292 62.2917H6.77079V27.0833H58.2291V62.2917H58.2292Z" fill="white"/>
<path d="M62.2917 13.5417H2.70827C1.96077 13.5417 1.35406 14.1485 1.35406 14.896V25.7293C1.35406 26.4768 1.96077 27.0835 2.70827 27.0835H62.2916C63.0391 27.0835 63.6458 26.4768 63.6458 25.7293V14.896C63.6458 14.1483 63.0392 13.5417 62.2917 13.5417ZM60.9375 24.375H4.06248V16.25H60.9375V24.375Z" fill="white"/>
<path d="M32.5 13.5417C31.7525 13.5417 31.1458 14.1485 31.1458 14.896V63.646C31.1458 64.3935 31.7525 65.0002 32.5 65.0002C33.2475 65.0002 33.8542 64.3935 33.8542 63.646V14.896C33.8542 14.1483 33.2475 13.5417 32.5 13.5417Z" fill="white"/>
<path d="M33.8839 14.5763C32.4919 8.04642 24.1881 1.04 18.655 0.102959C18.3138 0.035166 17.9644 0 17.6042 0C14.6169 0 12.1875 2.42937 12.1875 5.41671C12.1875 6.66529 12.6236 7.88404 13.4144 8.85092C13.4252 8.85904 13.4333 8.87263 13.4414 8.88342C17.4633 14.0211 30.8506 15.9901 32.3727 16.1986C32.435 16.2067 32.4972 16.2122 32.5569 16.2122C32.9333 16.2122 33.2908 16.0578 33.5508 15.7789C33.8514 15.4564 33.9761 15.0069 33.8839 14.5763ZM15.5377 7.16358C15.5133 7.12842 15.4863 7.09858 15.4591 7.06875C15.0908 6.59483 14.8958 6.02329 14.8958 5.41671C14.8958 3.92171 16.1119 2.70842 17.6041 2.70842C17.7828 2.70842 17.9589 2.72733 18.1674 2.76529C22.2272 3.45325 28.3561 8.36608 30.558 13.1598C25.843 12.2905 17.8831 10.2619 15.5377 7.16358Z" fill="white"/>
<path d="M47.3958 0C47.0357 0 46.6863 0.035166 46.3829 0.094834C40.8146 1.04 32.5108 8.04642 31.1188 14.5763C31.0267 15.0069 31.1513 15.4564 31.4519 15.7788C31.7092 16.055 32.0694 16.212 32.4432 16.212C32.5027 16.212 32.565 16.2066 32.6246 16.2013C34.1466 15.9927 47.534 14.0238 51.5558 8.88609C51.5666 8.87529 51.5747 8.86171 51.5857 8.85092C52.3764 7.88392 52.8125 6.66517 52.8125 5.41671C52.8125 2.42938 50.3832 0 47.3958 0ZM49.5408 7.07142C49.5138 7.10125 49.4866 7.13096 49.4622 7.16625C47.1196 10.2592 39.1597 12.2931 34.4418 13.1625C36.6463 8.36329 42.778 3.45313 46.8704 2.75983C47.041 2.72733 47.2171 2.70842 47.3958 2.70842C48.8882 2.70842 50.1041 3.92171 50.1041 5.41671C50.1042 6.02329 49.9092 6.59204 49.5408 7.07142Z" fill="white"/>
</g>
<defs>
<clipPath id="clip0">
<rect width="65" height="65" fill="white"/>
</clipPath>
</defs>
</svg>
