<svg width="56" height="35" viewBox="0 0 56 35" fill="none" xmlns="http://www.w3.org/2000/svg">
<path d="M5.39583 0.833496C2.42448 0.833496 0 2.86833 0 5.36214V29.5965C0 32.0903 2.42448 34.1252 5.39583 34.1252H50.6042C53.5755 34.1252 56 32.0903 56 29.5965V5.36214C56 2.86833 53.5755 0.833496 50.6042 0.833496H5.39583ZM5.39583 4.75016H50.6042C51.0508 4.75016 51.3333 4.98731 51.3333 5.36214V29.5965C51.3333 29.9714 51.0508 30.2085 50.6042 30.2085H5.39583C4.94922 30.2085 4.66667 29.9714 4.66667 29.5965V5.36214C4.66667 4.98731 4.94922 4.75016 5.39583 4.75016ZM22.1667 8.66683C16.3698 8.66683 11.6667 12.6141 11.6667 17.4793C11.6667 22.3446 16.3698 26.2918 22.1667 26.2918C24.3086 26.2918 26.3411 25.7487 28 24.8231C29.6589 25.7487 31.6914 26.2918 33.8333 26.2918C39.6302 26.2918 44.3333 22.3446 44.3333 17.4793C44.3333 12.6141 39.6302 8.66683 33.8333 8.66683C31.6914 8.66683 29.6589 9.20996 28 10.1356C26.3411 9.20996 24.3086 8.66683 22.1667 8.66683ZM33.8333 12.5835C37.0508 12.5835 39.6667 14.779 39.6667 17.4793C39.6667 20.1797 37.0508 22.3752 33.8333 22.3752C32.8854 22.3752 32.0013 22.161 31.2083 21.8244C32.0833 20.5392 32.6667 19.0705 32.6667 17.4793C32.6667 15.8882 32.0833 14.4194 31.2083 13.1343C32.0013 12.7977 32.8854 12.5835 33.8333 12.5835Z" fill="white"/>
</svg>
