<svg width="29" height="38" viewBox="0 0 29 38" fill="none" xmlns="http://www.w3.org/2000/svg">
<path d="M20.1277 0.661377L17.881 2.3313C17.881 2.3313 8.24054 9.50191 5.03253 11.8949C3.03015 13.3881 1.88064 14.4964 1.19556 15.6632C0.510477 16.83 0.440247 17.9889 0.440247 18.9619L0.4375 33.0326C0.4375 35.4248 2.42734 37.3749 4.82104 37.3749H28.5652V14.8749H22.9375H20.1277V0.661377ZM17.3152 6.25891V14.8749H17.3125L17.3152 16.1329V17.6874H17.318L17.3345 24.9467L3.80206 34.1862C3.46779 33.907 3.2508 33.5038 3.25 33.0353V33.0326L3.25275 18.9619C3.25275 18.0673 3.25997 17.7005 3.62079 17.0859C3.98161 16.4714 4.84442 15.5436 6.71344 14.1498C9.35586 12.1787 14.9396 8.02599 17.3152 6.25891ZM14.4231 14.8832C13.7765 14.9376 13.0463 15.3152 12.4785 15.9489C11.5687 16.9628 11.4232 18.248 12.1517 18.8218C12.8801 19.3955 14.2054 19.0378 15.1152 18.0225C16.0251 17.0072 16.1705 15.7192 15.4421 15.1469C15.1689 14.9322 14.8111 14.8505 14.4231 14.8832ZM22.9375 17.6874H25.7527V34.5624H4.82104C4.49926 34.5624 4.22418 34.4529 3.98059 34.3015L22.9375 27.5312V17.6874Z" fill="white"/>
</svg>
