<svg width="71" height="71" viewBox="0 0 71 71" fill="none" xmlns="http://www.w3.org/2000/svg">
<g clip-path="url(#clip0)">
<path d="M63.6042 53.25H54.7292C53.9127 53.25 53.25 52.5873 53.25 51.7708C53.25 50.9543 53.9127 50.2917 54.7292 50.2917H63.6042C66.0507 50.2917 68.0417 48.3007 68.0417 45.8542V25.1458C68.0417 22.6993 66.0507 20.7083 63.6042 20.7083H7.39583C4.94929 20.7083 2.95833 22.6993 2.95833 25.1458V45.8542C2.95833 48.3007 4.94929 50.2917 7.39583 50.2917H16.2708C17.0873 50.2917 17.75 50.9543 17.75 51.7708C17.75 52.5873 17.0873 53.25 16.2708 53.25H7.39583C3.31629 53.25 0 49.9307 0 45.8542V25.1458C0 21.0692 3.31629 17.75 7.39583 17.75H63.6042C67.6837 17.75 71 21.0692 71 25.1458V45.8542C71 49.9307 67.6837 53.25 63.6042 53.25Z" fill="white"/>
<path d="M42.8958 62.1251H25.1458C24.3293 62.1251 23.6667 61.4624 23.6667 60.6459C23.6667 59.8294 24.3293 59.1667 25.1458 59.1667H42.8958C43.7123 59.1667 44.375 59.8294 44.375 60.6459C44.375 61.4624 43.7123 62.1251 42.8958 62.1251Z" fill="white"/>
<path d="M42.8958 56.2083H25.1458C24.3293 56.2083 23.6667 55.5457 23.6667 54.7292C23.6667 53.9127 24.3293 53.25 25.1458 53.25H42.8958C43.7123 53.25 44.375 53.9127 44.375 54.7292C44.375 55.5457 43.7123 56.2083 42.8958 56.2083Z" fill="white"/>
<path d="M31.0625 50.2918H25.1458C24.3293 50.2918 23.6667 49.6292 23.6667 48.8127C23.6667 47.9962 24.3293 47.3335 25.1458 47.3335H31.0625C31.879 47.3335 32.5417 47.9962 32.5417 48.8127C32.5417 49.6292 31.879 50.2918 31.0625 50.2918Z" fill="white"/>
<path d="M54.7292 20.7083C53.9127 20.7083 53.25 20.0457 53.25 19.2292V7.39583C53.25 4.94929 51.259 2.95833 48.8125 2.95833H22.1875C19.7409 2.95833 17.75 4.94929 17.75 7.39583V19.2292C17.75 20.0457 17.0873 20.7083 16.2708 20.7083C15.4543 20.7083 14.7917 20.0457 14.7917 19.2292V7.39583C14.7917 3.31925 18.1079 0 22.1875 0H48.8125C52.892 0 56.2083 3.31925 56.2083 7.39583V19.2292C56.2083 20.0457 55.5457 20.7083 54.7292 20.7083Z" fill="white"/>
<path d="M48.8125 71.0002H22.1875C18.1079 71.0002 14.7917 67.6809 14.7917 63.6043V39.9377C14.7917 39.1212 15.4543 38.4585 16.2708 38.4585H54.7292C55.5457 38.4585 56.2083 39.1212 56.2083 39.9377V63.6043C56.2083 67.6809 52.892 71.0002 48.8125 71.0002ZM17.75 41.4168V63.6043C17.75 66.0509 19.7409 68.0418 22.1875 68.0418H48.8125C51.259 68.0418 53.25 66.0509 53.25 63.6043V41.4168H17.75Z" fill="white"/>
</g>
<defs>
<clipPath id="clip0">
<rect width="71" height="71" fill="white"/>
</clipPath>
</defs>
</svg>
