<svg width="27" height="27" viewBox="0 0 27 27" fill="none" xmlns="http://www.w3.org/2000/svg">
<g clip-path="url(#clip0)">
<path d="M25.9654 5.51323C24.9294 4.08766 23.1151 2.80094 20.8567 1.89022C18.6105 0.984449 16.0025 0.483579 13.5129 0.479993C11.0232 0.47377 8.41192 0.969473 6.16248 1.86822C3.90017 2.77214 2.08152 4.05327 1.04176 5.47547C0.043076 6.84145 -0.244748 8.31374 0.209348 9.73319C0.503922 10.654 1.36323 11.2736 2.34815 11.275L5.72057 11.2782C5.72167 11.2782 5.72278 11.2782 5.72394 11.2782C6.39641 11.2781 7.02822 10.9838 7.45758 10.4702C7.88241 9.96211 8.05839 9.29808 7.94042 8.64828C7.93699 8.62925 7.93277 8.61026 7.92797 8.59144L7.75052 7.90157C8.73318 7.4327 10.9596 6.52683 13.5025 6.54123C16.0436 6.55425 18.2685 7.4596 19.2524 7.92867L19.0721 8.61464C19.067 8.63405 19.0626 8.65361 19.0589 8.67328C18.9392 9.3227 19.1132 9.98721 19.5366 10.4965C19.9652 11.0123 20.5975 11.3085 21.2717 11.3095L24.6441 11.3127C24.6452 11.3127 24.6464 11.3127 24.6475 11.3127C25.6305 11.3126 26.4901 10.6959 26.7869 9.77701C27.2452 8.35788 26.9612 6.88347 25.9654 5.51323ZM25.2534 9.28162C25.1735 9.52884 24.9245 9.70128 24.6469 9.70128C24.6466 9.70128 24.6463 9.70128 24.6459 9.70128L21.2735 9.69812C21.0792 9.69786 20.8978 9.61343 20.7757 9.46646C20.7093 9.38657 20.6056 9.2204 20.6395 8.98932L20.975 7.71299C21.067 7.3632 20.9146 6.99511 20.6024 6.81255C20.4723 6.7365 17.3713 4.94955 13.5108 4.92967C13.4893 4.92956 13.4685 4.92951 13.4471 4.92951C9.61131 4.92951 6.53246 6.70866 6.40258 6.78481C6.09234 6.96674 5.94026 7.33219 6.02985 7.68056L6.3587 8.95894C6.3923 9.1905 6.28804 9.35666 6.22133 9.4365C6.09904 9.58279 5.91774 9.66664 5.72347 9.66664C5.72315 9.66664 5.72283 9.66664 5.72252 9.66664L2.35005 9.66347C2.07251 9.66305 1.82334 9.48977 1.74413 9.24202C1.44924 8.32017 1.65058 7.3728 2.34256 6.42632C4.18072 3.91216 8.86354 2.09119 13.4854 2.09119C13.4937 2.09119 13.5025 2.09119 13.5107 2.09119C18.1372 2.09783 22.827 3.93536 24.662 6.46039C25.3523 7.4105 25.5513 8.35967 25.2534 9.28162Z" fill="white"/>
<path d="M21.1252 14.7553L18.6102 12.1146C18.4581 11.9549 18.2473 11.8646 18.0268 11.8646H16.4015V10.7665C16.4015 10.3215 16.0408 9.96083 15.5959 9.96083C15.1509 9.96083 14.7902 10.3215 14.7902 10.7665V11.8646H12.2103V10.7665C12.2103 10.3215 11.8496 9.96083 11.4046 9.96083C10.9597 9.96083 10.599 10.3215 10.599 10.7665V11.8646H8.97373C8.75325 11.8646 8.54237 11.955 8.39033 12.1146L5.87543 14.7553C3.90359 16.8257 2.81763 19.5406 2.81763 22.3998V25.7143C2.81763 26.1592 3.17833 26.52 3.6233 26.52H23.3772C23.8221 26.52 24.1829 26.1592 24.1829 25.7143V22.3998C24.183 19.5406 23.097 16.8257 21.1252 14.7553ZM4.42898 24.9086V22.3998C4.42898 19.9562 5.35705 17.6361 7.04234 15.8665L9.31909 13.4758H17.6815L19.9583 15.8665C21.6434 17.6359 22.5715 19.9562 22.5715 22.3998V24.9086H4.42898Z" fill="white"/>
<path d="M13.5003 15.1419C11.1752 15.1419 9.28369 17.0335 9.28369 19.3585C9.28369 21.6836 11.1753 23.5752 13.5003 23.5752C15.8253 23.5752 17.7169 21.6836 17.7169 19.3585C17.7169 17.0335 15.8253 15.1419 13.5003 15.1419ZM13.5003 21.9637C12.0637 21.9637 10.895 20.795 10.895 19.3585C10.895 17.9219 12.0637 16.7532 13.5003 16.7532C14.9368 16.7532 16.1055 17.9219 16.1055 19.3585C16.1055 20.795 14.9368 21.9637 13.5003 21.9637Z" fill="white"/>
</g>
<defs>
<clipPath id="clip0">
<rect width="27" height="27" fill="white"/>
</clipPath>
</defs>
</svg>
