<svg width="51" height="35" viewBox="0 0 51 35" fill="none" xmlns="http://www.w3.org/2000/svg">
<path d="M49.6871 0.974609H1.31292C0.586933 0.974609 0 1.56245 0 2.28753V32.7133C0 33.4384 0.586933 34.0262 1.31292 34.0262H49.6871C50.4131 34.0262 51 33.4384 51 32.7133V2.28753C51 1.56245 50.4131 0.974609 49.6871 0.974609ZM3.94871 10.9624H9.39184C10.126 10.9904 10.7174 11.2243 10.9215 12.009L12.1053 17.7022C10.9422 14.7242 8.13941 12.2464 3.90356 11.2207L3.94871 10.9624ZM10.535 23.9472L7.39085 13.2054C9.65099 14.652 11.5761 16.9473 12.2543 18.5447L12.6209 19.8712L16.0594 11.0861H19.7797L14.2507 23.9445L10.535 23.9472ZM22.5139 23.9562H19.0031L21.1982 11.0726H24.7108L22.5139 23.9562ZM28.6234 24.1495C27.0495 24.1332 25.5334 23.8217 24.7117 23.4614L25.2056 20.5782L25.658 20.7832C26.8111 21.2644 27.5579 21.4595 28.9638 21.4595C29.9724 21.4595 31.0533 21.0649 31.0632 20.2016C31.0695 19.6373 30.6108 19.2346 29.2437 18.6025C27.9109 17.9866 26.1465 16.9536 26.1682 15.1035C26.1872 12.5995 28.6324 10.8522 32.1025 10.8522C33.4624 10.8522 34.5523 11.1322 35.2476 11.3931L34.7735 14.186L34.4566 14.037C33.8101 13.777 32.9784 13.526 31.8289 13.544C30.4546 13.544 29.8171 14.1165 29.8171 14.652C29.8099 15.2552 30.5612 15.6525 31.7892 16.2502C33.8146 17.1695 34.751 18.2846 34.7383 19.7502C34.7112 22.423 32.3157 24.1495 28.6234 24.1495ZM43.8385 23.9616C43.8385 23.9616 43.518 22.4808 43.4114 22.0311C42.9003 22.0311 39.3173 22.0257 38.9146 22.0257C38.7782 22.3733 38.1769 23.9616 38.1769 23.9616H34.49L39.7029 12.1552C40.0731 11.3164 40.7007 11.0861 41.5422 11.0861H44.2548L47.0964 23.9607L43.8385 23.9616Z" fill="white"/>
</svg>
