<svg width="63" height="63" viewBox="0 0 63 63" fill="none" xmlns="http://www.w3.org/2000/svg">
<g clip-path="url(#clip0)">
<path d="M60.1364 31.7642V22.9097C60.1364 19.9072 57.8075 17.4654 54.865 17.2286L46.642 2.86595C45.88 1.5376 44.6495 0.58819 43.1771 0.193955C41.7117 -0.197596 40.1793 0.00804513 38.8678 0.771415L10.6789 17.1825H5.72808C2.56949 17.1825 0.000854492 19.751 0.000854492 22.9097V57.2728C0.000854492 60.4314 2.56936 63 5.72808 63H54.4091C57.5677 63 60.1364 60.4315 60.1364 57.2728V48.4182C61.7994 47.8252 62.9999 46.2508 62.9999 44.3866V35.7958C62.9999 33.9317 61.7994 32.3573 60.1364 31.7642ZM51.5375 17.1825H39.058L48.4178 11.7332L51.5375 17.1825ZM46.995 9.24822L33.3667 17.1825H27.7139L45.5816 6.77958L46.995 9.24822ZM40.3093 3.24623C40.9567 2.86729 41.7131 2.76662 42.436 2.95965C43.1673 3.15535 43.777 3.62798 44.1559 4.28934L44.1589 4.29457L22.0229 17.1825H16.3703L40.3093 3.24623ZM57.2727 57.2728C57.2727 58.8513 55.9877 60.1363 54.4091 60.1363H5.72808C4.14952 60.1363 2.86453 58.8513 2.86453 57.2728V22.9097C2.86453 21.3311 4.14952 20.0461 5.72808 20.0461H54.4091C55.9877 20.0461 57.2727 21.3311 57.2727 22.9097V31.5005H48.6819C43.9446 31.5005 40.0912 35.354 40.0912 40.0912C40.0912 44.8285 43.9446 48.682 48.6819 48.682H57.2727V57.2728ZM60.1364 44.3866C60.1364 45.1766 59.4946 45.8185 58.7045 45.8185H48.6819C45.5233 45.8185 42.9547 43.25 42.9547 40.0912C42.9547 36.9326 45.5232 34.364 48.6819 34.364H58.7045C59.4945 34.364 60.1364 35.0058 60.1364 35.7958V44.3866Z" fill="white"/>
<path d="M48.6814 37.2278C47.1029 37.2278 45.8179 38.5128 45.8179 40.0913C45.8179 41.6699 47.1029 42.9549 48.6814 42.9549C50.26 42.9549 51.545 41.6699 51.545 40.0913C51.5451 38.5128 50.2601 37.2278 48.6814 37.2278Z" fill="white"/>
</g>
<defs>
<clipPath id="clip0">
<rect width="63" height="63" fill="white"/>
</clipPath>
</defs>
</svg>
