<svg width="27" height="27" viewBox="0 0 27 27" fill="none" xmlns="http://www.w3.org/2000/svg">
<path d="M22.9881 3.92088C20.4517 1.39396 17.0775 0.00144196 13.4864 0C9.90335 0 6.52382 1.39128 3.97073 3.91759C1.41312 6.44822 0.0032959 9.81127 0 13.375V13.3791V13.3816C0.000411987 15.5385 0.567101 17.7144 1.6428 19.7006L0.0368729 27L7.4203 25.3205C9.29031 26.263 11.3768 26.7598 13.4813 26.7606H13.4866C17.069 26.7606 20.4486 25.3691 23.0021 22.8426C25.562 20.3099 26.9724 16.9512 26.974 13.3853C26.9751 9.84444 25.5597 6.48324 22.9881 3.92088ZM13.4864 24.6533H13.4817C11.5921 24.6525 9.71981 24.1781 8.06754 23.281L7.71838 23.0915L2.80872 24.2082L3.87515 19.3615L3.66957 19.007C2.64743 17.2443 2.10732 15.2985 2.10732 13.3793C2.11123 7.16714 7.21534 2.10732 13.486 2.10732C16.5153 2.10855 19.3618 3.28292 21.5008 5.41372C23.6722 7.57748 24.8676 10.4082 24.8665 13.3846C24.8641 19.5982 19.7589 24.6533 13.4864 24.6533Z" fill="white"/>
<path d="M9.81663 7.48096H9.22543C9.01964 7.48096 8.68552 7.558 8.40289 7.86555C8.12006 8.1733 7.32307 8.91715 7.32307 10.43C7.32307 11.9428 8.42864 13.4045 8.58273 13.6099C8.73701 13.8151 10.7168 17.0187 13.8525 18.2511C16.4585 19.2753 16.9889 19.0716 17.5544 19.0203C18.12 18.9692 19.3797 18.2767 19.6368 17.5588C19.8938 16.8409 19.8938 16.2254 19.8168 16.0968C19.7395 15.9687 19.5338 15.8919 19.2254 15.7382C18.9168 15.5843 17.4048 14.8279 17.122 14.7251C16.8392 14.6228 16.6336 14.5715 16.4278 14.8794C16.222 15.1868 15.6162 15.8979 15.4361 16.103C15.2563 16.3084 15.0763 16.3342 14.7677 16.1803C14.4591 16.026 13.4757 15.6956 12.2972 14.6483C11.3799 13.8332 10.7434 12.7937 10.5634 12.486C10.3835 12.1784 10.5442 12.012 10.6989 11.8585C10.8375 11.7209 11.0248 11.5326 11.1791 11.3532C11.3332 11.1736 11.377 11.0455 11.48 10.8403C11.5828 10.6351 11.5313 10.4555 11.4543 10.3018C11.377 10.148 10.785 8.62752 10.5106 8.01942H10.5108C10.2797 7.50732 10.0364 7.49002 9.81663 7.48096Z" fill="white"/>
</svg>
