<svg width="45" height="45" viewBox="0 0 45 45" fill="none" xmlns="http://www.w3.org/2000/svg">
<path d="M28.1277 2.66138L25.881 4.3313C25.881 4.3313 16.2405 11.5019 13.0325 13.8949C11.0301 15.3881 9.88064 16.4964 9.19556 17.6632C8.51048 18.83 8.44025 19.9889 8.44025 20.9619L8.4375 35.0326C8.4375 37.4248 10.4273 39.3749 12.821 39.3749H36.5652V16.8749H30.9375H28.1277V2.66138ZM25.3152 8.25891V16.8749H25.3125L25.3152 18.1329V19.6874H25.318L25.3345 26.9467L11.8021 36.1862C11.4678 35.907 11.2508 35.5038 11.25 35.0353V35.0326L11.2527 20.9619C11.2527 20.0673 11.26 19.7005 11.6208 19.0859C11.9816 18.4714 12.8444 17.5436 14.7134 16.1498C17.3559 14.1787 22.9396 10.026 25.3152 8.25891ZM22.4231 16.8832C21.7765 16.9376 21.0463 17.3152 20.4785 17.9489C19.5687 18.9628 19.4232 20.248 20.1517 20.8218C20.8801 21.3955 22.2054 21.0378 23.1152 20.0225C24.0251 19.0072 24.1705 17.7192 23.4421 17.1469C23.1689 16.9322 22.8111 16.8505 22.4231 16.8832ZM30.9375 19.6874H33.7527V36.5624H12.821C12.4993 36.5624 12.2242 36.4529 11.9806 36.3015L30.9375 29.5312V19.6874Z" fill="white"/>
</svg>
